Simulation
nRows=20
nColumns=15
endheader
time  TH_x TH_y TH_z SC_y  SC_z  SC_x  AC_y  AC_z  AC_x  GH_y  GH_z  GH_yy  EL_x  PS_y
2.681  0.000000  0.000000  0.000000  -17.878993063003616  5.0343700533277875  -14.586506815713824  48.46533667937932  12.39311529878665  8.378370865618859  -11.493193264667102  12.246010280421821  41.56997286576531  15.895806786488736  120.000000
2.73462  0.000000  0.000000  0.000000  -18.44275553037737  5.3143663927705544  -13.812284815872548  48.55599215029944  12.963981896355218  8.222888329521654  -8.568642862030028  8.982252560908947  42.98437003721109  16.971333832958134  120.000000
2.78824  0.000000  0.000000  0.000000  -19.25711570937355  5.5661176151843055  -12.830569048741234  48.80554625002009  13.51150818690951  8.009842556223479  -3.3922798172085917  6.318445093699759  41.128244989874624  17.84165667183343  120.000000
2.84186  0.000000  0.000000  0.000000  -20.20986485079901  5.762256445173502  -11.7301238909806  49.16028708675401  14.003805877855799  7.739351161302143  5.757842078003787  4.296991257176645  34.331961482422614  18.462953552628033  120.000000
2.89548  0.000000  0.000000  0.000000  -21.166762055202987  5.880813998302333  -10.594830701513676  49.586930811317096  14.414782919534495  7.420381588359706  20.653950956929005  2.9514546529286627  20.965660967026082  18.83108255567162  120.000000
2.9491  0.000000  0.000000  0.000000  -22.00975838483213  5.910035835012756  -9.494155541448091  50.065076139325775  14.727939468796388  7.0704198590537874  39.766692270415426  2.240932392308057  2.7283512557504026  18.969155425175032  120.000000
3.00272  0.000000  0.000000  0.000000  -22.664652279999373  5.853468967548066  -8.478811802301376  50.578796155891865  14.940127563268737  6.708872224652409  55.80053404218542  1.9536394721131904  -12.923616635077483  18.922220683750453  120.000000
3.05634  0.000000  0.000000  0.000000  -23.105189662639432  5.726786655440786  -7.582925735023509  51.10909307068188  15.059512783905312  6.35518039302174  63.24732208646317  1.8181146256216874  -20.340152802378967  18.751033628638133  120.000000
3.10996  0.000000  0.000000  0.000000  -23.343014349547854  5.549988735856819  -6.825701010650855  51.63409859926489  15.09805550228584  6.0275662118863975  61.87484175534617  1.71159183109376  -19.16794771381589  18.520696256083475  120.000000
3.16358  0.000000  0.000000  0.000000  -23.40935510988105  5.34278183334106  -6.211518805757749  52.13577258123966  15.066333330223111  5.739739783005334  53.50994034634216  1.6587241779752313  -11.133356223425867  18.28610299790569  120.000000
3.2172  0.000000  0.000000  0.000000  -23.34635645687247  5.125523223388273  -5.732924795374459  52.60078394973549  14.973417923974717  5.500214570114293  41.80954270609885  1.7284077983737107  0.18368983324831872  18.079811626991543  120.000000
3.27082  0.000000  0.000000  0.000000  -23.1982166496202  4.916754981162473  -5.376390622770009  53.01962138169641  14.828983196554294  5.312943546541316  31.30998896901291  1.941836470273568  10.301769700454685  17.908595317014154  120.000000
3.32444  0.000000  0.000000  0.000000  -23.00535261410896  4.730385878295416  -5.127153396900352  53.38637273949914  14.643115675325246  5.177811648669032  24.32050202518809  2.2634326353164034  16.946166737403903  17.76230205834541  120.000000
3.37806  0.000000  0.000000  0.000000  -22.79868409062542  4.574832498589197  -4.972421392037766  53.69819125610467  14.425543092031836  5.091568481577322  20.651273669871074  2.64903224211123  20.325473931188366  17.626527182815163  120.000000
3.43168  0.000000  0.000000  0.000000  -22.598688267706464  4.452734560304135  -4.902491501547393  53.95343222128175  14.184179074609792  5.048632135228861  19.30956133615872  3.073305373510313  21.438959406317878  17.492129997222968  120.000000
3.4853  0.000000  0.000000  0.000000  -22.414044051507943  4.362398141739135  -4.9097338166058915  54.15071282043592  13.922858747124845  5.041593520866221  19.367589375127807  3.5281742330127566  21.213982418413615  17.35896148490032  120.000000
3.53892  0.000000  0.000000  0.000000  -22.243758630605527  4.2986605546255126  -4.989676450893955  54.28720812428981  13.642074837085874  5.063706914907947  20.12563908093933  4.0146152753424715  20.34624876571181  17.2329345850586  120.000000
3.59254  0.000000  0.000000  0.000000  -22.077474450681567  4.253755104753192  -5.1425312313655365  54.359748291464896  13.341383406201064  5.110624423419362  21.07426664920514  4.536975849340091  19.341537555145557  17.11935809340762  120.000000
3.64616  0.000000  0.000000  0.000000  -21.898833924160634  4.217690379336042  -5.369303612735127  54.36637211545997  13.018439310436834  5.179753581090838  21.847669317982692  5.101335985841344  18.563297097427913  17.015799537487474  120.000000
3.69978  0.000000  0.000000  0.000000  -21.68613911221894  4.182217461672253  -5.6715099011782435  54.31173553869871  12.671546410458612  5.268944530598761  22.206714505706724  5.718017510159818  18.248701792163903  16.9095603482215  120.000000
